<svg width="176" height="92" viewBox="0 0 176 92" fill="none" xmlns="http://www.w3.org/2000/svg">
<g filter="url(#filter0_d_615_982)">
<rect x="4" width="96.6566" height="84" rx="12.6074" fill="#B5FF6E"/>
</g>
<g filter="url(#filter1_d_615_982)">
<rect x="75.4414" width="96.6566" height="84" rx="12.6074" fill="#002C1B"/>
</g>
<path d="M36.7437 48.9289C36.5698 47.9438 36.2048 47.092 35.6485 46.3734C35.0922 45.6549 34.3852 45.1102 33.5276 44.7393C32.6816 44.3569 31.7486 44.1656 30.7288 44.1656C29.338 44.1656 28.1153 44.5133 27.0607 45.2087C26.0061 45.8925 25.1832 46.9007 24.5922 48.2335C24.0011 49.5663 23.7056 51.1657 23.7056 53.0316C23.7056 54.909 24.0011 56.5142 24.5922 57.847C25.1832 59.1797 26.0061 60.188 27.0607 60.8718C28.1269 61.5556 29.3496 61.8975 30.7288 61.8975C31.7254 61.8975 32.641 61.7178 33.4755 61.3586C34.3215 60.9877 35.0284 60.4546 35.5963 59.7592C36.1642 59.0639 36.5467 58.2352 36.7437 57.2733H41.2983C41.0665 58.8958 40.4813 60.3677 39.5425 61.6889C38.6154 63.0101 37.3869 64.0531 35.8571 64.818C34.3273 65.5829 32.5947 65.9654 30.6592 65.9654C28.4456 65.9654 26.4638 65.4496 24.7138 64.4182C22.9754 63.3751 21.6137 61.8801 20.6286 59.9331C19.6435 57.9744 19.1509 55.6739 19.1509 53.0316C19.1509 50.3776 19.6435 48.0771 20.6286 46.13C21.6253 44.183 22.9928 42.6938 24.7312 41.6623C26.4812 40.6193 28.4572 40.0977 30.6592 40.0977C32.5135 40.0977 34.1998 40.4512 35.718 41.1582C37.2362 41.8535 38.4821 42.8676 39.4556 44.2004C40.4291 45.5216 41.0434 47.0978 41.2983 48.9289H36.7437ZM44.1146 60.2981C44.1146 58.3511 44.7694 56.9488 46.079 56.0912C47.4002 55.222 49.0864 54.7236 51.1377 54.5961C53.1427 54.4571 54.7537 54.3643 55.9705 54.318V52.8229C55.9705 51.8842 55.675 51.1599 55.0839 50.6499C54.4929 50.1284 53.6527 49.8676 52.5632 49.8676C51.6013 49.8676 50.8132 50.0705 50.199 50.4761C49.5848 50.8817 49.1907 51.4322 49.0169 52.1276H44.7404C44.8447 51.0498 45.2271 50.0878 45.8877 49.2418C46.5483 48.3842 47.4581 47.712 48.617 47.2252C49.776 46.7385 51.1262 46.4951 52.6676 46.4951C53.9887 46.4951 55.2288 46.7037 56.3878 47.1209C57.5583 47.5266 58.5144 48.2161 59.2561 49.1897C60.0095 50.1516 60.3861 51.4206 60.3861 52.9968V65.6177H56.1444V63.0101H56.0053C55.5417 63.8909 54.8464 64.6094 53.9192 65.1657C52.9921 65.722 51.8331 66.0001 50.4424 66.0001C49.2255 66.0001 48.1361 65.7799 47.1742 65.3395C46.2238 64.8991 45.4763 64.2501 44.9316 63.3925C44.3869 62.5349 44.1146 61.5034 44.1146 60.2981ZM48.3911 60.2634C48.3911 61.063 48.6808 61.6773 49.2603 62.1061C49.8397 62.5233 50.6162 62.7319 51.5897 62.7319C52.4589 62.7319 53.2296 62.5581 53.9018 62.2104C54.574 61.8627 55.0897 61.3933 55.449 60.8023C55.8199 60.1996 56.0053 59.5448 56.0053 58.8379L55.9879 57.2907L51.8331 57.5514C50.7437 57.6441 49.8977 57.9165 49.295 58.3685C48.6924 58.8205 48.3911 59.4521 48.3911 60.2634ZM64.5583 46.7385H68.8696V49.8676H69.0782C69.4027 48.8014 69.988 47.967 70.834 47.3643C71.68 46.7617 72.6477 46.4603 73.7371 46.4603C74.3862 46.4603 74.9193 46.4951 75.3365 46.5646V50.6673C75.1395 50.5978 74.8381 50.534 74.4325 50.4761C74.0269 50.4181 73.6444 50.3892 73.2852 50.3892C72.4739 50.3892 71.7438 50.563 71.0948 50.9107C70.4457 51.2584 69.9358 51.7451 69.5649 52.371C69.1941 52.9968 69.0087 53.7037 69.0087 54.4918V65.6177H64.5583V46.7385Z" fill="#002C1B"/>
<path d="M84.3762 65.9654C82.8812 65.9654 81.5426 65.5829 80.3605 64.818C79.19 64.0415 78.2686 62.9173 77.5964 61.4455C76.9242 59.9736 76.5881 58.2236 76.5881 56.1955C76.5881 54.1557 76.93 52.4057 77.6138 50.9455C78.2976 49.4852 79.2305 48.3784 80.4127 47.6251C81.5948 46.8718 82.9276 46.4951 84.411 46.4951C86.9143 46.4951 88.7107 47.6077 89.8001 49.8329H89.9739V40.4454H94.3895V65.6177H90.0435V62.6276H89.8001C88.6875 64.8528 86.8796 65.9654 84.3762 65.9654ZM85.5931 62.3147C86.5319 62.3147 87.3373 62.0597 88.0095 61.5498C88.6817 61.0398 89.1916 60.3213 89.5393 59.3942C89.8986 58.467 90.0782 57.3892 90.0782 56.1607C90.0782 54.9438 89.9044 53.8834 89.5567 52.9794C89.209 52.0638 88.6991 51.3569 88.0269 50.8585C87.3547 50.3602 86.5435 50.111 85.5931 50.111C84.6312 50.111 83.8142 50.366 83.142 50.8759C82.4698 51.3859 81.9598 52.0986 81.6122 53.0142C81.2761 53.9297 81.108 54.9786 81.108 56.1607C81.108 57.366 81.2819 58.4322 81.6295 59.3594C81.9772 60.2865 82.4872 61.0109 83.1593 61.5324C83.8315 62.0539 84.6428 62.3147 85.5931 62.3147ZM110.313 56.9604H98.9789V53.3097H110.313V56.9604ZM137.328 53.0316C137.328 55.6855 136.83 57.986 135.833 59.9331C134.837 61.8801 133.463 63.3751 131.713 64.4182C129.975 65.4496 127.999 65.9654 125.785 65.9654C123.572 65.9654 121.59 65.4496 119.84 64.4182C118.101 63.3751 116.734 61.8801 115.737 59.9331C114.741 57.9744 114.242 55.6739 114.242 53.0316C114.242 50.3776 114.741 48.0771 115.737 46.13C116.734 44.183 118.101 42.6938 119.84 41.6623C121.59 40.6193 123.572 40.0977 125.785 40.0977C127.999 40.0977 129.975 40.6193 131.713 41.6623C133.463 42.6938 134.837 44.183 135.833 46.13C136.83 48.0771 137.328 50.3776 137.328 53.0316ZM132.774 53.0316C132.774 51.1541 132.478 49.5547 131.887 48.2335C131.308 46.9007 130.491 45.8925 129.436 45.2087C128.381 44.5133 127.164 44.1656 125.785 44.1656C124.406 44.1656 123.189 44.5133 122.135 45.2087C121.08 45.8925 120.257 46.9007 119.666 48.2335C119.087 49.5547 118.797 51.1541 118.797 53.0316C118.797 54.909 119.087 56.5142 119.666 57.847C120.257 59.1682 121.08 60.1764 122.135 60.8718C123.189 61.5556 124.406 61.8975 125.785 61.8975C127.164 61.8975 128.381 61.5556 129.436 60.8718C130.491 60.1764 131.308 59.1682 131.887 57.847C132.478 56.5142 132.774 54.909 132.774 53.0316ZM146.16 58.212H142.231L141.813 40.4454H146.542L146.16 58.212ZM144.212 65.8958C143.726 65.8958 143.274 65.7741 142.857 65.5308C142.439 65.2874 142.109 64.9571 141.866 64.5399C141.622 64.1226 141.501 63.6707 141.501 63.1839C141.501 62.7087 141.622 62.2683 141.866 61.8627C142.109 61.4455 142.439 61.1152 142.857 60.8718C143.274 60.6284 143.726 60.5067 144.212 60.5067C144.676 60.5067 145.111 60.6284 145.516 60.8718C145.934 61.1152 146.264 61.4455 146.507 61.8627C146.762 62.2683 146.89 62.7087 146.89 63.1839C146.89 63.6707 146.762 64.1226 146.507 64.5399C146.264 64.9571 145.934 65.2874 145.516 65.5308C145.111 65.7741 144.676 65.8958 144.212 65.8958Z" fill="#B5FF6E"/>
<path d="M139.362 9.24609C139.142 10.6219 138.957 12.6271 138.448 13.1356C137.94 13.644 137.122 13.8294 135.746 14.0499C137.122 14.2704 137.94 14.4557 138.448 14.9657C138.957 15.4742 139.142 17.2924 139.362 18.6693C139.583 17.2924 139.768 15.4742 140.277 14.9642C140.787 14.4557 141.605 14.2704 142.981 14.0499C141.605 13.8294 140.787 13.644 140.278 13.1356C139.768 12.6271 139.583 10.6219 139.362 9.24609Z" fill="#B5FF6E"/>
<path d="M152.735 9.3877C152.05 13.6618 151.474 19.8916 149.895 21.4713C148.315 23.051 145.774 23.6267 141.5 24.3118C145.774 24.997 148.315 25.5727 149.895 27.1571C151.474 28.7368 152.05 34.3855 152.735 38.663C153.42 34.3855 153.996 28.7368 155.576 27.1524C157.16 25.5727 159.701 24.997 163.978 24.3118C159.701 23.6267 157.16 23.051 155.58 21.4713C153.996 19.8916 153.42 13.6618 152.735 9.3877Z" fill="#B5FF6E"/>
<defs>
<filter id="filter0_d_615_982" x="0" y="0" width="104.656" height="92" filterUnits="userSpaceOnUse" color-interpolation-filters="sRGB">
<feFlood flood-opacity="0" result="BackgroundImageFix"/>
<feColorMatrix in="SourceAlpha" type="matrix" values="0 0 0 0 0 0 0 0 0 0 0 0 0 0 0 0 0 0 127 0" result="hardAlpha"/>
<feOffset dy="4"/>
<feGaussianBlur stdDeviation="2"/>
<feComposite in2="hardAlpha" operator="out"/>
<feColorMatrix type="matrix" values="0 0 0 0 0 0 0 0 0 0 0 0 0 0 0 0 0 0 0.25 0"/>
<feBlend mode="normal" in2="BackgroundImageFix" result="effect1_dropShadow_615_982"/>
<feBlend mode="normal" in="SourceGraphic" in2="effect1_dropShadow_615_982" result="shape"/>
</filter>
<filter id="filter1_d_615_982" x="72.0794" y="0" width="103.38" height="90.7239" filterUnits="userSpaceOnUse" color-interpolation-filters="sRGB">
<feFlood flood-opacity="0" result="BackgroundImageFix"/>
<feColorMatrix in="SourceAlpha" type="matrix" values="0 0 0 0 0 0 0 0 0 0 0 0 0 0 0 0 0 0 127 0" result="hardAlpha"/>
<feOffset dy="3.36197"/>
<feGaussianBlur stdDeviation="1.68098"/>
<feComposite in2="hardAlpha" operator="out"/>
<feColorMatrix type="matrix" values="0 0 0 0 0 0 0 0 0 0 0 0 0 0 0 0 0 0 0.25 0"/>
<feBlend mode="normal" in2="BackgroundImageFix" result="effect1_dropShadow_615_982"/>
<feBlend mode="normal" in="SourceGraphic" in2="effect1_dropShadow_615_982" result="shape"/>
</filter>
</defs>
</svg>
